
    <svg xmlns="http://www.w3.org/2000/svg" viewBox="0 0 200 2756">
      <style>
        text {
  font-family: sans-serif;
  font-weight: 400;
  font-style: normal;
}
        text {
          font-size: 6px;
        }
      </style>
      <text y="7" x="3">Tower Gold</text><rect width="64.66666666666667" height="10" y="10" x="0" fill="#bfa350" />
<rect width="64.66666666666667" height="10" y="10" x="66.66666666666667" fill="#abbbbb" />
<rect width="64.66666666666667" height="10" y="10" x="133.33333333333334" fill="#ce583c" />
<text y="33" x="3">Jungle Silver</text><rect width="64.66666666666667" height="10" y="36" x="0" fill="#a5a5a5" />
<rect width="64.66666666666667" height="10" y="36" x="66.66666666666667" fill="#bbd4db" />
<rect width="64.66666666666667" height="10" y="36" x="133.33333333333334" fill="#f6c14f" />
<text y="59" x="3">Japonica Mongoose</text><rect width="64.66666666666667" height="10" y="62" x="0" fill="#aea57c" />
<rect width="64.66666666666667" height="10" y="62" x="66.66666666666667" fill="#dd7969" />
<rect width="64.66666666666667" height="10" y="62" x="133.33333333333334" fill="#9ea1b2" />
<text y="85" x="3">Burnt Bone</text><rect width="64.66666666666667" height="10" y="88" x="0" fill="#e3c7bc" />
<rect width="64.66666666666667" height="10" y="88" x="66.66666666666667" fill="#e85a4e" />
<rect width="64.66666666666667" height="10" y="88" x="133.33333333333334" fill="#0a4737" />
<text y="111" x="3">Azalea Dandelion</text><rect width="64.66666666666667" height="10" y="114" x="0" fill="#fcacc7" />
<rect width="64.66666666666667" height="10" y="114" x="66.66666666666667" fill="#f2b9dc" />
<rect width="64.66666666666667" height="10" y="114" x="133.33333333333334" fill="#ffda6f" />
<text y="137" x="3">Pigeon Sisal</text><rect width="64.66666666666667" height="10" y="140" x="0" fill="#d4ccbf" />
<rect width="64.66666666666667" height="10" y="140" x="66.66666666666667" fill="#b4c4db" />
<rect width="64.66666666666667" height="10" y="140" x="133.33333333333334" fill="#acc8af" />
<text y="163" x="3">Romantic Cove</text><rect width="64.66666666666667" height="10" y="166" x="0" fill="#647ebb" />
<rect width="64.66666666666667" height="10" y="166" x="66.66666666666667" fill="#ffd7be" />
<rect width="64.66666666666667" height="10" y="166" x="133.33333333333334" fill="#ffbcb3" />
<text y="189" x="3">Havelock Fog</text><rect width="64.66666666666667" height="10" y="192" x="0" fill="#4e94d2" />
<rect width="64.66666666666667" height="10" y="192" x="66.66666666666667" fill="#7db078" />
<rect width="64.66666666666667" height="10" y="192" x="133.33333333333334" fill="#dfafab" />
<text y="215" x="3">Conifer Mongoose</text><rect width="64.66666666666667" height="10" y="218" x="0" fill="#b39f86" />
<rect width="64.66666666666667" height="10" y="218" x="66.66666666666667" fill="#96d85d" />
<rect width="64.66666666666667" height="10" y="218" x="133.33333333333334" fill="#67c3ec" />
<text y="241" x="3">Champagne Cheese</text><rect width="64.66666666666667" height="10" y="244" x="0" fill="#ffaf00" />
<rect width="64.66666666666667" height="10" y="244" x="66.66666666666667" fill="#fbf0d2" />
<rect width="64.66666666666667" height="10" y="244" x="133.33333333333334" fill="#ffb884" />
<text y="267" x="3">French Skeptic</text><rect width="64.66666666666667" height="10" y="270" x="0" fill="#c9e7df" />
<rect width="64.66666666666667" height="10" y="270" x="66.66666666666667" fill="#c8e2fd" />
<rect width="64.66666666666667" height="10" y="270" x="133.33333333333334" fill="#e3d2da" />
<text y="293" x="3">Husk Bush</text><rect width="64.66666666666667" height="10" y="296" x="0" fill="#e6ddce" />
<rect width="64.66666666666667" height="10" y="296" x="66.66666666666667" fill="#c0a95b" />
<rect width="64.66666666666667" height="10" y="296" x="133.33333333333334" fill="#70c7db" />
<text y="319" x="3">Wafer Casper</text><rect width="64.66666666666667" height="10" y="322" x="0" fill="#f1d292" />
<rect width="64.66666666666667" height="10" y="322" x="66.66666666666667" fill="#dcbfc1" />
<rect width="64.66666666666667" height="10" y="322" x="133.33333333333334" fill="#acc1d2" />
<text y="345" x="3">De Mischka</text><rect width="64.66666666666667" height="10" y="348" x="0" fill="#d8d9de" />
<rect width="64.66666666666667" height="10" y="348" x="66.66666666666667" fill="#95cb99" />
<rect width="64.66666666666667" height="10" y="348" x="133.33333333333334" fill="#dba65a" />
<text y="371" x="3">Iceberg Red</text><rect width="64.66666666666667" height="10" y="374" x="0" fill="#d0eef0" />
<rect width="64.66666666666667" height="10" y="374" x="66.66666666666667" fill="#f3e0da" />
<rect width="64.66666666666667" height="10" y="374" x="133.33333333333334" fill="#ff295d" />
<text y="397" x="3">Dolphin Neptune</text><rect width="64.66666666666667" height="10" y="400" x="0" fill="#e5d5d8" />
<rect width="64.66666666666667" height="10" y="400" x="66.66666666666667" fill="#7aa9b9" />
<rect width="64.66666666666667" height="10" y="400" x="133.33333333333334" fill="#64657a" />
<text y="423" x="3">Cadet Gray</text><rect width="64.66666666666667" height="10" y="426" x="0" fill="#adb9c5" />
<rect width="64.66666666666667" height="10" y="426" x="66.66666666666667" fill="#f1adae" />
<rect width="64.66666666666667" height="10" y="426" x="133.33333333333334" fill="#5c5f64" />
<text y="449" x="3">Ghost Zero</text><rect width="64.66666666666667" height="10" y="452" x="0" fill="#c5c9d2" />
<rect width="64.66666666666667" height="10" y="452" x="66.66666666666667" fill="#0254c2" />
<rect width="64.66666666666667" height="10" y="452" x="133.33333333333334" fill="#dde182" />
<text y="475" x="3">Sunflower Green</text><rect width="64.66666666666667" height="10" y="478" x="0" fill="#ff7c74" />
<rect width="64.66666666666667" height="10" y="478" x="66.66666666666667" fill="#e5c32c" />
<rect width="64.66666666666667" height="10" y="478" x="133.33333333333334" fill="#90b39d" />
<text y="501" x="3">Gulf Linen</text><rect width="64.66666666666667" height="10" y="504" x="0" fill="#f9e7d9" />
<rect width="64.66666666666667" height="10" y="504" x="66.66666666666667" fill="#8db5b4" />
<rect width="64.66666666666667" height="10" y="504" x="133.33333333333334" fill="#be1a32" />
<text y="527" x="3">Cornflower Sulu</text><rect width="64.66666666666667" height="10" y="530" x="0" fill="#8bc2e0" />
<rect width="64.66666666666667" height="10" y="530" x="66.66666666666667" fill="#9eea86" />
<rect width="64.66666666666667" height="10" y="530" x="133.33333333333334" fill="#5b6e68" />
<text y="553" x="3">Cameo Jasper</text><rect width="64.66666666666667" height="10" y="556" x="0" fill="#ddbc9d" />
<rect width="64.66666666666667" height="10" y="556" x="66.66666666666667" fill="#c9523c" />
<rect width="64.66666666666667" height="10" y="556" x="133.33333333333334" fill="#ffce34" />
<text y="579" x="3">Resolution Amber</text><rect width="64.66666666666667" height="10" y="582" x="0" fill="#cdc1b5" />
<rect width="64.66666666666667" height="10" y="582" x="66.66666666666667" fill="#f0a065" />
<rect width="64.66666666666667" height="10" y="582" x="133.33333333333334" fill="#012988" />
<text y="605" x="3">Lochmara Supernova</text><rect width="64.66666666666667" height="10" y="608" x="0" fill="#fecb00" />
<rect width="64.66666666666667" height="10" y="608" x="66.66666666666667" fill="#007cbc" />
<rect width="64.66666666666667" height="10" y="608" x="133.33333333333334" fill="#ff3f00" />
<text y="631" x="3">Raw Blue</text><rect width="64.66666666666667" height="10" y="634" x="0" fill="#fccba0" />
<rect width="64.66666666666667" height="10" y="634" x="66.66666666666667" fill="#d68a58" />
<rect width="64.66666666666667" height="10" y="634" x="133.33333333333334" fill="#3243cf" />
<text y="657" x="3">Hot Blue</text><rect width="64.66666666666667" height="10" y="660" x="0" fill="#013f70" />
<rect width="64.66666666666667" height="10" y="660" x="66.66666666666667" fill="#dc6b27" />
<rect width="64.66666666666667" height="10" y="660" x="133.33333333333334" fill="#6fe5e7" />
<text y="683" x="3">Apricot Turquoise</text><rect width="64.66666666666667" height="10" y="686" x="0" fill="#f9c5ad" />
<rect width="64.66666666666667" height="10" y="686" x="66.66666666666667" fill="#07e6f7" />
<rect width="64.66666666666667" height="10" y="686" x="133.33333333333334" fill="#f2b922" />
<text y="709" x="3">Tuscany Anzac</text><rect width="64.66666666666667" height="10" y="712" x="0" fill="#dcaf54" />
<rect width="64.66666666666667" height="10" y="712" x="66.66666666666667" fill="#665a20" />
<rect width="64.66666666666667" height="10" y="712" x="133.33333333333334" fill="#ba522d" />
<text y="735" x="3">Melon Green</text><rect width="64.66666666666667" height="10" y="738" x="0" fill="#cfdbd7" />
<rect width="64.66666666666667" height="10" y="738" x="66.66666666666667" fill="#feb7a3" />
<rect width="64.66666666666667" height="10" y="738" x="133.33333333333334" fill="#09beaf" />
<text y="761" x="3">Magic Mist</text><rect width="64.66666666666667" height="10" y="764" x="0" fill="#001755" />
<rect width="64.66666666666667" height="10" y="764" x="66.66666666666667" fill="#dfd8ce" />
<rect width="64.66666666666667" height="10" y="764" x="133.33333333333334" fill="#fb9d00" />
<text y="787" x="3">Picton Jaffa</text><rect width="64.66666666666667" height="10" y="790" x="0" fill="#f6dec6" />
<rect width="64.66666666666667" height="10" y="790" x="66.66666666666667" fill="#47bde5" />
<rect width="64.66666666666667" height="10" y="790" x="133.33333333333334" fill="#e88541" />
<text y="813" x="3">Burnt Frost</text><rect width="64.66666666666667" height="10" y="816" x="0" fill="#e0ba4d" />
<rect width="64.66666666666667" height="10" y="816" x="66.66666666666667" fill="#ed7672" />
<rect width="64.66666666666667" height="10" y="816" x="133.33333333333334" fill="#8e7c70" />
<text y="839" x="3">La Red</text><rect width="64.66666666666667" height="10" y="842" x="0" fill="#fe000d" />
<rect width="64.66666666666667" height="10" y="842" x="66.66666666666667" fill="#ffc001" />
<rect width="64.66666666666667" height="10" y="842" x="133.33333333333334" fill="#418413" />
<text y="865" x="3">Sinbad Tan</text><rect width="64.66666666666667" height="10" y="868" x="0" fill="#c55f6a" />
<rect width="64.66666666666667" height="10" y="868" x="66.66666666666667" fill="#f7ae83" />
<rect width="64.66666666666667" height="10" y="868" x="133.33333333333334" fill="#a9d1d9" />
<text y="891" x="3">Chantilly Orange</text><rect width="64.66666666666667" height="10" y="894" x="0" fill="#ffb047" />
<rect width="64.66666666666667" height="10" y="894" x="66.66666666666667" fill="#f2a7e8" />
<rect width="64.66666666666667" height="10" y="894" x="133.33333333333334" fill="#a993aa" />
<text y="917" x="3">Chalky Bud</text><rect width="64.66666666666667" height="10" y="920" x="0" fill="#f0da9e" />
<rect width="64.66666666666667" height="10" y="920" x="66.66666666666667" fill="#afc5ae" />
<rect width="64.66666666666667" height="10" y="920" x="133.33333333333334" fill="#f9b3b5" />
<text y="943" x="3">Blue Flare</text><rect width="64.66666666666667" height="10" y="946" x="0" fill="#d7b9c3" />
<rect width="64.66666666666667" height="10" y="946" x="66.66666666666667" fill="#215e57" />
<rect width="64.66666666666667" height="10" y="946" x="133.33333333333334" fill="#cc634e" />
<text y="969" x="3">Faded Gray</text><rect width="64.66666666666667" height="10" y="972" x="0" fill="#f61a04" />
<rect width="64.66666666666667" height="10" y="972" x="66.66666666666667" fill="#417d7b" />
<rect width="64.66666666666667" height="10" y="972" x="133.33333333333334" fill="#a0b9b6" />
<text y="995" x="3">Downy Shilo</text><rect width="64.66666666666667" height="10" y="998" x="0" fill="#e1a4ac" />
<rect width="64.66666666666667" height="10" y="998" x="66.66666666666667" fill="#6ed4c7" />
<rect width="64.66666666666667" height="10" y="998" x="133.33333333333334" fill="#64635e" />
<text y="1021" x="3">Manhattan Gray</text><rect width="64.66666666666667" height="10" y="1024" x="0" fill="#f3b991" />
<rect width="64.66666666666667" height="10" y="1024" x="66.66666666666667" fill="#cecdc9" />
<rect width="64.66666666666667" height="10" y="1024" x="133.33333333333334" fill="#3acb4a" />
<text y="1047" x="3">Santas Orange</text><rect width="64.66666666666667" height="10" y="1050" x="0" fill="#004942" />
<rect width="64.66666666666667" height="10" y="1050" x="66.66666666666667" fill="#9fa3af" />
<rect width="64.66666666666667" height="10" y="1050" x="133.33333333333334" fill="#fa6219" />
<text y="1073" x="3">Maverick Orient</text><rect width="64.66666666666667" height="10" y="1076" x="0" fill="#00618e" />
<rect width="64.66666666666667" height="10" y="1076" x="66.66666666666667" fill="#d8bbcd" />
<rect width="64.66666666666667" height="10" y="1076" x="133.33333333333334" fill="#aed3dc" />
<text y="1099" x="3">Tonys Stream</text><rect width="64.66666666666667" height="10" y="1102" x="0" fill="#b1d4ce" />
<rect width="64.66666666666667" height="10" y="1102" x="66.66666666666667" fill="#e6a191" />
<rect width="64.66666666666667" height="10" y="1102" x="133.33333333333334" fill="#ffc316" />
<text y="1125" x="3">Brick Gray</text><rect width="64.66666666666667" height="10" y="1128" x="0" fill="#98a5d2" />
<rect width="64.66666666666667" height="10" y="1128" x="66.66666666666667" fill="#d02e46" />
<rect width="64.66666666666667" height="10" y="1128" x="133.33333333333334" fill="#dedfda" />
<text y="1151" x="3">Bitter Norway</text><rect width="64.66666666666667" height="10" y="1154" x="0" fill="#868781" />
<rect width="64.66666666666667" height="10" y="1154" x="66.66666666666667" fill="#abc5a2" />
<rect width="64.66666666666667" height="10" y="1154" x="133.33333333333334" fill="#659b5d" />
<text y="1177" x="3">Golden Orchid</text><rect width="64.66666666666667" height="10" y="1180" x="0" fill="#dc8dce" />
<rect width="64.66666666666667" height="10" y="1180" x="66.66666666666667" fill="#f4dd73" />
<rect width="64.66666666666667" height="10" y="1180" x="133.33333333333334" fill="#7cd054" />
<text y="1203" x="3">Astronaut Shadz</text><rect width="64.66666666666667" height="10" y="1206" x="0" fill="#283375" />
<rect width="64.66666666666667" height="10" y="1206" x="66.66666666666667" fill="#bb3c5a" />
<rect width="64.66666666666667" height="10" y="1206" x="133.33333333333334" fill="#ff78a0" />
<text y="1229" x="3">Cashmere Himalaya</text><rect width="64.66666666666667" height="10" y="1232" x="0" fill="#eead35" />
<rect width="64.66666666666667" height="10" y="1232" x="66.66666666666667" fill="#e7c4a8" />
<rect width="64.66666666666667" height="10" y="1232" x="133.33333333333334" fill="#70671a" />
<text y="1255" x="3">Hit Red</text><rect width="64.66666666666667" height="10" y="1258" x="0" fill="#ca444f" />
<rect width="64.66666666666667" height="10" y="1258" x="66.66666666666667" fill="#fda985" />
<rect width="64.66666666666667" height="10" y="1258" x="133.33333333333334" fill="#c59f9c" />
<text y="1281" x="3">Corn Lady</text><rect width="64.66666666666667" height="10" y="1284" x="0" fill="#fff1d9" />
<rect width="64.66666666666667" height="10" y="1284" x="66.66666666666667" fill="#fbf6d0" />
<rect width="64.66666666666667" height="10" y="1284" x="133.33333333333334" fill="#c9c2af" />
<text y="1307" x="3">Sunset Envy</text><rect width="64.66666666666667" height="10" y="1310" x="0" fill="#00697c" />
<rect width="64.66666666666667" height="10" y="1310" x="66.66666666666667" fill="#86a28c" />
<rect width="64.66666666666667" height="10" y="1310" x="133.33333333333334" fill="#ff533f" />
<text y="1333" x="3">Macaroni Salmon</text><rect width="64.66666666666667" height="10" y="1336" x="0" fill="#284b5f" />
<rect width="64.66666666666667" height="10" y="1336" x="66.66666666666667" fill="#fac081" />
<rect width="64.66666666666667" height="10" y="1336" x="133.33333333333334" fill="#fc8f68" />
<text y="1359" x="3">Governor Apricot</text><rect width="64.66666666666667" height="10" y="1362" x="0" fill="#e8856e" />
<rect width="64.66666666666667" height="10" y="1362" x="66.66666666666667" fill="#413bcf" />
<rect width="64.66666666666667" height="10" y="1362" x="133.33333333333334" fill="#9492a7" />
<text y="1385" x="3">Rose Crail</text><rect width="64.66666666666667" height="10" y="1388" x="0" fill="#f9b795" />
<rect width="64.66666666666667" height="10" y="1388" x="66.66666666666667" fill="#af4b3c" />
<rect width="64.66666666666667" height="10" y="1388" x="133.33333333333334" fill="#dec9b6" />
<text y="1411" x="3">Candlelight Orange</text><rect width="64.66666666666667" height="10" y="1414" x="0" fill="#ff5a5e" />
<rect width="64.66666666666667" height="10" y="1414" x="66.66666666666667" fill="#fdd211" />
<rect width="64.66666666666667" height="10" y="1414" x="133.33333333333334" fill="#7a93fa" />
<text y="1437" x="3">Mandy Dingley</text><rect width="64.66666666666667" height="10" y="1440" x="0" fill="#d9d1c6" />
<rect width="64.66666666666667" height="10" y="1440" x="66.66666666666667" fill="#6a7344" />
<rect width="64.66666666666667" height="10" y="1440" x="133.33333333333334" fill="#e9475e" />
<text y="1463" x="3">Pickled Green</text><rect width="64.66666666666667" height="10" y="1466" x="0" fill="#899cbc" />
<rect width="64.66666666666667" height="10" y="1466" x="66.66666666666667" fill="#303e5b" />
<rect width="64.66666666666667" height="10" y="1466" x="133.33333333333334" fill="#bdda86" />
<text y="1489" x="3">Aztec Pharlap</text><rect width="64.66666666666667" height="10" y="1492" x="0" fill="#647d5f" />
<rect width="64.66666666666667" height="10" y="1492" x="66.66666666666667" fill="#c19f58" />
<rect width="64.66666666666667" height="10" y="1492" x="133.33333333333334" fill="#a08385" />
<text y="1515" x="3">Bright Turquoise</text><rect width="64.66666666666667" height="10" y="1518" x="0" fill="#06ebc3" />
<rect width="64.66666666666667" height="10" y="1518" x="66.66666666666667" fill="#ff416d" />
<rect width="64.66666666666667" height="10" y="1518" x="133.33333333333334" fill="#ffd640" />
<text y="1541" x="3">Pampas Jasper</text><rect width="64.66666666666667" height="10" y="1544" x="0" fill="#efeae6" />
<rect width="64.66666666666667" height="10" y="1544" x="66.66666666666667" fill="#507166" />
<rect width="64.66666666666667" height="10" y="1544" x="133.33333333333334" fill="#d1483e" />
<text y="1567" x="3">Havelock Thistle</text><rect width="64.66666666666667" height="10" y="1570" x="0" fill="#eec4da" />
<rect width="64.66666666666667" height="10" y="1570" x="66.66666666666667" fill="#6a88e2" />
<rect width="64.66666666666667" height="10" y="1570" x="133.33333333333334" fill="#fefb00" />
<text y="1593" x="3">Linen Sienna</text><rect width="64.66666666666667" height="10" y="1596" x="0" fill="#cb6c3c" />
<rect width="64.66666666666667" height="10" y="1596" x="66.66666666666667" fill="#879296" />
<rect width="64.66666666666667" height="10" y="1596" x="133.33333333333334" fill="#f9e5de" />
<text y="1619" x="3">Antique Lace</text><rect width="64.66666666666667" height="10" y="1622" x="0" fill="#fdfbee" />
<rect width="64.66666666666667" height="10" y="1622" x="66.66666666666667" fill="#d40000" />
<rect width="64.66666666666667" height="10" y="1622" x="133.33333333333334" fill="#cd9d77" />
<text y="1645" x="3">Guardsman Gray</text><rect width="64.66666666666667" height="10" y="1648" x="0" fill="#335e8b" />
<rect width="64.66666666666667" height="10" y="1648" x="66.66666666666667" fill="#d90200" />
<rect width="64.66666666666667" height="10" y="1648" x="133.33333333333334" fill="#c0c0ca" />
<text y="1671" x="3">Bison Padua</text><rect width="64.66666666666667" height="10" y="1674" x="0" fill="#694c52" />
<rect width="64.66666666666667" height="10" y="1674" x="66.66666666666667" fill="#ade5ca" />
<rect width="64.66666666666667" height="10" y="1674" x="133.33333333333334" fill="#bfbba2" />
<text y="1697" x="3">San Carlo</text><rect width="64.66666666666667" height="10" y="1700" x="0" fill="#0e2048" />
<rect width="64.66666666666667" height="10" y="1700" x="66.66666666666667" fill="#3e71a0" />
<rect width="64.66666666666667" height="10" y="1700" x="133.33333333333334" fill="#82d0d4" />
<text y="1723" x="3">Zest Vanilla</text><rect width="64.66666666666667" height="10" y="1726" x="0" fill="#dddbe0" />
<rect width="64.66666666666667" height="10" y="1726" x="66.66666666666667" fill="#e67d21" />
<rect width="64.66666666666667" height="10" y="1726" x="133.33333333333334" fill="#cdb8a3" />
<text y="1749" x="3">Aquamarine Timberwolf</text><rect width="64.66666666666667" height="10" y="1752" x="0" fill="#6de5b8" />
<rect width="64.66666666666667" height="10" y="1752" x="66.66666666666667" fill="#007ae8" />
<rect width="64.66666666666667" height="10" y="1752" x="133.33333333333334" fill="#d5d0cc" />
<text y="1775" x="3">Hopbush Anzac</text><rect width="64.66666666666667" height="10" y="1778" x="0" fill="#d15b97" />
<rect width="64.66666666666667" height="10" y="1778" x="66.66666666666667" fill="#c1a5d8" />
<rect width="64.66666666666667" height="10" y="1778" x="133.33333333333334" fill="#e4c64c" />
<text y="1801" x="3">Macaroni Sheen</text><rect width="64.66666666666667" height="10" y="1804" x="0" fill="#f8caba" />
<rect width="64.66666666666667" height="10" y="1804" x="66.66666666666667" fill="#fdb489" />
<rect width="64.66666666666667" height="10" y="1804" x="133.33333333333334" fill="#76bca4" />
<text y="1827" x="3">Tan Blue</text><rect width="64.66666666666667" height="10" y="1830" x="0" fill="#18474d" />
<rect width="64.66666666666667" height="10" y="1830" x="66.66666666666667" fill="#fc9a4f" />
<rect width="64.66666666666667" height="10" y="1830" x="133.33333333333334" fill="#6ecde3" />
<text y="1853" x="3">Cape Nickel</text><rect width="64.66666666666667" height="10" y="1856" x="0" fill="#373d3b" />
<rect width="64.66666666666667" height="10" y="1856" x="66.66666666666667" fill="#e9e929" />
<rect width="64.66666666666667" height="10" y="1856" x="133.33333333333334" fill="#c0bfbb" />
<text y="1879" x="3">Onyx Ash</text><rect width="64.66666666666667" height="10" y="1882" x="0" fill="#b5c9bd" />
<rect width="64.66666666666667" height="10" y="1882" x="66.66666666666667" fill="#2c302f" />
<rect width="64.66666666666667" height="10" y="1882" x="133.33333333333334" fill="#74a69a" />
<text y="1905" x="3">Romantic Ash</text><rect width="64.66666666666667" height="10" y="1908" x="0" fill="#a0d5fd" />
<rect width="64.66666666666667" height="10" y="1908" x="66.66666666666667" fill="#708063" />
<rect width="64.66666666666667" height="10" y="1908" x="133.33333333333334" fill="#ffc9b1" />
<text y="1931" x="3">Persian Marzipan</text><rect width="64.66666666666667" height="10" y="1934" x="0" fill="#aff3a6" />
<rect width="64.66666666666667" height="10" y="1934" x="66.66666666666667" fill="#1a2de1" />
<rect width="64.66666666666667" height="10" y="1934" x="133.33333333333334" fill="#f8d7a2" />
<text y="1957" x="3">Apricot Cognac</text><rect width="64.66666666666667" height="10" y="1960" x="0" fill="#fce4c0" />
<rect width="64.66666666666667" height="10" y="1960" x="66.66666666666667" fill="#9e4118" />
<rect width="64.66666666666667" height="10" y="1960" x="133.33333333333334" fill="#ef966c" />
<text y="1983" x="3">Gold Cascade</text><rect width="64.66666666666667" height="10" y="1986" x="0" fill="#e9ca9c" />
<rect width="64.66666666666667" height="10" y="1986" x="66.66666666666667" fill="#88aba5" />
<rect width="64.66666666666667" height="10" y="1986" x="133.33333333333334" fill="#0a3a48" />
<text y="2009" x="3">New Poppy</text><rect width="64.66666666666667" height="10" y="2012" x="0" fill="#447ea3" />
<rect width="64.66666666666667" height="10" y="2012" x="66.66666666666667" fill="#f4dc9e" />
<rect width="64.66666666666667" height="10" y="2012" x="133.33333333333334" fill="#b2312b" />
<text y="2035" x="3">Maverick Ash</text><rect width="64.66666666666667" height="10" y="2038" x="0" fill="#fdf5d0" />
<rect width="64.66666666666667" height="10" y="2038" x="66.66666666666667" fill="#747c57" />
<rect width="64.66666666666667" height="10" y="2038" x="133.33333333333334" fill="#d3bccc" />
<text y="2061" x="3">Schooner Casper</text><rect width="64.66666666666667" height="10" y="2064" x="0" fill="#151320" />
<rect width="64.66666666666667" height="10" y="2064" x="66.66666666666667" fill="#938886" />
<rect width="64.66666666666667" height="10" y="2064" x="133.33333333333334" fill="#acb5d2" />
<text y="2087" x="3">Clam Plantation</text><rect width="64.66666666666667" height="10" y="2090" x="0" fill="#009f57" />
<rect width="64.66666666666667" height="10" y="2090" x="66.66666666666667" fill="#dabcb4" />
<rect width="64.66666666666667" height="10" y="2090" x="133.33333333333334" fill="#2b5844" />
<text y="2113" x="3">Stromboli Tasman</text><rect width="64.66666666666667" height="10" y="2116" x="0" fill="#d8dfd7" />
<rect width="64.66666666666667" height="10" y="2116" x="66.66666666666667" fill="#8e9479" />
<rect width="64.66666666666667" height="10" y="2116" x="133.33333333333334" fill="#2d4e45" />
<text y="2139" x="3">Scarlet Beaver</text><rect width="64.66666666666667" height="10" y="2142" x="0" fill="#9e7b68" />
<rect width="64.66666666666667" height="10" y="2142" x="66.66666666666667" fill="#fc7f00" />
<rect width="64.66666666666667" height="10" y="2142" x="133.33333333333334" fill="#fe3700" />
<text y="2165" x="3">Wedgewood Sand</text><rect width="64.66666666666667" height="10" y="2168" x="0" fill="#829a8d" />
<rect width="64.66666666666667" height="10" y="2168" x="66.66666666666667" fill="#b4b8bb" />
<rect width="64.66666666666667" height="10" y="2168" x="133.33333333333334" fill="#5482a3" />
<text y="2191" x="3">Oxford Brass</text><rect width="64.66666666666667" height="10" y="2194" x="0" fill="#2d3b48" />
<rect width="64.66666666666667" height="10" y="2194" x="66.66666666666667" fill="#3472e3" />
<rect width="64.66666666666667" height="10" y="2194" x="133.33333333333334" fill="#ca927b" />
<text y="2217" x="3">Green Axolotl</text><rect width="64.66666666666667" height="10" y="2220" x="0" fill="#c09189" />
<rect width="64.66666666666667" height="10" y="2220" x="66.66666666666667" fill="#20361f" />
<rect width="64.66666666666667" height="10" y="2220" x="133.33333333333334" fill="#4c7249" />
<text y="2243" x="3">Salmon Can</text><rect width="64.66666666666667" height="10" y="2246" x="0" fill="#3e997a" />
<rect width="64.66666666666667" height="10" y="2246" x="66.66666666666667" fill="#ff8063" />
<rect width="64.66666666666667" height="10" y="2246" x="133.33333333333334" fill="#f4bf5f" />
<text y="2269" x="3">Cascade Dingley</text><rect width="64.66666666666667" height="10" y="2272" x="0" fill="#cbccd0" />
<rect width="64.66666666666667" height="10" y="2272" x="66.66666666666667" fill="#90aeb0" />
<rect width="64.66666666666667" height="10" y="2272" x="133.33333333333334" fill="#606c44" />
<text y="2295" x="3">Porsche Norway</text><rect width="64.66666666666667" height="10" y="2298" x="0" fill="#eba56a" />
<rect width="64.66666666666667" height="10" y="2298" x="66.66666666666667" fill="#fa6954" />
<rect width="64.66666666666667" height="10" y="2298" x="133.33333333333334" fill="#9fb99e" />
<text y="2321" x="3">Monza Cruise</text><rect width="64.66666666666667" height="10" y="2324" x="0" fill="#c0eced" />
<rect width="64.66666666666667" height="10" y="2324" x="66.66666666666667" fill="#e30222" />
<rect width="64.66666666666667" height="10" y="2324" x="133.33333333333334" fill="#65e9ed" />
<text y="2347" x="3">Monza Blue</text><rect width="64.66666666666667" height="10" y="2350" x="0" fill="#d5ad94" />
<rect width="64.66666666666667" height="10" y="2350" x="66.66666666666667" fill="#d90132" />
<rect width="64.66666666666667" height="10" y="2350" x="133.33333333333334" fill="#5a91b8" />
<text y="2373" x="3">Fun Cameo</text><rect width="64.66666666666667" height="10" y="2376" x="0" fill="#ffd900" />
<rect width="64.66666666666667" height="10" y="2376" x="66.66666666666667" fill="#1c5db9" />
<rect width="64.66666666666667" height="10" y="2376" x="133.33333333333334" fill="#debb9f" />
<text y="2399" x="3">Just Tasman</text><rect width="64.66666666666667" height="10" y="2402" x="0" fill="#a1d7ca" />
<rect width="64.66666666666667" height="10" y="2402" x="66.66666666666667" fill="#eed1c1" />
<rect width="64.66666666666667" height="10" y="2402" x="133.33333333333334" fill="#ccdbc8" />
<text y="2425" x="3">Scarlet Prim</text><rect width="64.66666666666667" height="10" y="2428" x="0" fill="#f1e7f0" />
<rect width="64.66666666666667" height="10" y="2428" x="66.66666666666667" fill="#e0c4d0" />
<rect width="64.66666666666667" height="10" y="2428" x="133.33333333333334" fill="#ff2952" />
<text y="2451" x="3">Atomic Eagle</text><rect width="64.66666666666667" height="10" y="2454" x="0" fill="#b6b8ab" />
<rect width="64.66666666666667" height="10" y="2454" x="66.66666666666667" fill="#ff9f75" />
<rect width="64.66666666666667" height="10" y="2454" x="133.33333333333334" fill="#fe786d" />
<text y="2477" x="3">Amaranth Gray</text><rect width="64.66666666666667" height="10" y="2480" x="0" fill="#e82746" />
<rect width="64.66666666666667" height="10" y="2480" x="66.66666666666667" fill="#3b3b53" />
<rect width="64.66666666666667" height="10" y="2480" x="133.33333333333334" fill="#b7b4bf" />
<text y="2503" x="3">Pastel Gray</text><rect width="64.66666666666667" height="10" y="2506" x="0" fill="#fae1c3" />
<rect width="64.66666666666667" height="10" y="2506" x="66.66666666666667" fill="#4fe454" />
<rect width="64.66666666666667" height="10" y="2506" x="133.33333333333334" fill="#bfcee5" />
<text y="2529" x="3">Tuna Sienna</text><rect width="64.66666666666667" height="10" y="2532" x="0" fill="#cac5bf" />
<rect width="64.66666666666667" height="10" y="2532" x="66.66666666666667" fill="#383840" />
<rect width="64.66666666666667" height="10" y="2532" x="133.33333333333334" fill="#d27f57" />
<text y="2555" x="3">Winter Viridian</text><rect width="64.66666666666667" height="10" y="2558" x="0" fill="#a3e3ff" />
<rect width="64.66666666666667" height="10" y="2558" x="66.66666666666667" fill="#d2bfb8" />
<rect width="64.66666666666667" height="10" y="2558" x="133.33333333333334" fill="#4a8a67" />
<text y="2581" x="3">Sizzling Red</text><rect width="64.66666666666667" height="10" y="2584" x="0" fill="#02a2f0" />
<rect width="64.66666666666667" height="10" y="2584" x="66.66666666666667" fill="#fc0742" />
<rect width="64.66666666666667" height="10" y="2584" x="133.33333333333334" fill="#fde000" />
<text y="2607" x="3">Timberwolf Shell</text><rect width="64.66666666666667" height="10" y="2610" x="0" fill="#d5b7af" />
<rect width="64.66666666666667" height="10" y="2610" x="66.66666666666667" fill="#3d3d49" />
<rect width="64.66666666666667" height="10" y="2610" x="133.33333333333334" fill="#ddd8d5" />
<text y="2633" x="3">Supernova Celeste</text><rect width="64.66666666666667" height="10" y="2636" x="0" fill="#fccb05" />
<rect width="64.66666666666667" height="10" y="2636" x="66.66666666666667" fill="#52a9a3" />
<rect width="64.66666666666667" height="10" y="2636" x="133.33333333333334" fill="#cecec6" />
<text y="2659" x="3">Oslo Crusta</text><rect width="64.66666666666667" height="10" y="2662" x="0" fill="#90959b" />
<rect width="64.66666666666667" height="10" y="2662" x="66.66666666666667" fill="#ff8532" />
<rect width="64.66666666666667" height="10" y="2662" x="133.33333333333334" fill="#9d8b7f" />
<text y="2685" x="3">Alizarin Mariner</text><rect width="64.66666666666667" height="10" y="2688" x="0" fill="#eaca3b" />
<rect width="64.66666666666667" height="10" y="2688" x="66.66666666666667" fill="#ed2a2e" />
<rect width="64.66666666666667" height="10" y="2688" x="133.33333333333334" fill="#2862cd" />
<text y="2711" x="3">Nevada Akaroa</text><rect width="64.66666666666667" height="10" y="2714" x="0" fill="#696f78" />
<rect width="64.66666666666667" height="10" y="2714" x="66.66666666666667" fill="#dac5b2" />
<rect width="64.66666666666667" height="10" y="2714" x="133.33333333333334" fill="#f3e2c2" />
<text y="2737" x="3">Bunting Post</text><rect width="64.66666666666667" height="10" y="2740" x="0" fill="#b8c4da" />
<rect width="64.66666666666667" height="10" y="2740" x="66.66666666666667" fill="#101741" />
<rect width="64.66666666666667" height="10" y="2740" x="133.33333333333334" fill="#bbd2f4" />
    </svg>
  